# xmcd CD database file
#
# Track frame offsets:
#	187
#	4212
#	17517
#	21655
#
# Disc length: 543 seconds
#
# Revision: 0
# Processed by: cddbd v1.5.1PL0 Copyright (c) Steve Scherf et al.
# Submitted via: CDex 1.51
#
DISCID=27021d04
DTITLE=ゴールドワックス - カルシウムが足りない
DYEAR=1993
DGENRE=J-Pop
TTITLE0=カルシウムが足りない
TTITLE1=スーパースリック
TTITLE2=カルシウムが足りない(inst
TTITLE3=ゴールドワックスのテーマ’９３
EXTD=YEAR: 1993
EXTT0=
EXTT1=
EXTT2=
EXTT3=
PLAYORDER=
